{
  "accessors": [
    {
      "bufferView": 2,
      "componentType": 5126,
      "count": 45377,
      "max": [
        2.7256336212158203,
        0.8341889381408691,
        0.5260656476020813
      ],
      "min": [
        -1.9187908172607422,
        -0.78769850730896,
        -0.5158206224441528
      ],
      "type": "VEC3"
    },
    {
      "bufferView": 2,
      "byteOffset": 544524,
      "componentType": 5126,
      "count": 45377,
      "max": [
        0.9999999403953552,
        1.0,
        1.0
      ],
      "min": [
        -0.9999995231628418,
        -1.0,
        -1.0
      ],
      "type": "VEC3"
    },
    {
      "bufferView": 3,
      "componentType": 5126,
      "count": 45377,
      "max": [
        0.999996542930603,
        0.9999992251396179,
        1.0,
        1.0
      ],
      "min": [
        -0.9999958276748657,
        -0.9999995231628418,
        -1.0,
        1.0
      ],
      "type": "VEC4"
    },
    {
      "bufferView": 1,
      "componentType": 5126,
      "count": 45377,
      "max": [
        1.0,
        0.9998656511306763
      ],
      "min": [
        0.0,
        0.0
      ],
      "type": "VEC2"
    },
    {
      "bufferView": 1,
      "byteOffset": 363016,
      "componentType": 5126,
      "count": 45377,
      "max": [
        1.0,
        0.9998656511306763
      ],
      "min": [
        0.0,
        0.0
      ],
      "type": "VEC2"
    },
    {
      "bufferView": 1,
      "byteOffset": 726032,
      "componentType": 5126,
      "count": 45377,
      "max": [
        1.0,
        0.9998656511306763
      ],
      "min": [
        0.0,
        0.0
      ],
      "type": "VEC2"
    },
    {
      "bufferView": 1,
      "byteOffset": 1089048,
      "componentType": 5126,
      "count": 45377,
      "max": [
        1.0,
        0.9998656511306763
      ],
      "min": [
        0.0,
        0.0
      ],
      "type": "VEC2"
    },
    {
      "bufferView": 0,
      "componentType": 5125,
      "count": 129846,
      "type": "SCALAR"
    }
  ],
  "asset": {
    "extras": {
      "author": "Kelisei Ventura (https://sketchfab.com/frankestudios71)",
      "license": "CC-BY-4.0 (http://creativecommons.org/licenses/by/4.0/)",
      "source": "https://sketchfab.com/3d-models/space-carrier-480c95b94c8a4e668b634d5eac861e98",
      "title": "Space Carrier"
    },
    "generator": "Sketchfab-12.68.0",
    "version": "2.0"
  },
  "bufferViews": [
    {
      "buffer": 0,
      "byteLength": 519384,
      "name": "floatBufferViews",
      "target": 34963
    },
    {
      "buffer": 0,
      "byteLength": 1452064,
      "byteOffset": 519384,
      "byteStride": 8,
      "name": "floatBufferViews",
      "target": 34962
    },
    {
      "buffer": 0,
      "byteLength": 1089048,
      "byteOffset": 1971448,
      "byteStride": 12,
      "name": "floatBufferViews",
      "target": 34962
    },
    {
      "buffer": 0,
      "byteLength": 726032,
      "byteOffset": 3060496,
      "byteStride": 16,
      "name": "floatBufferViews",
      "target": 34962
    }
  ],
  "buffers": [
    {
      "byteLength": 3786528,
      "uri": "scene.bin"
    }
  ],
  "images": [
    {
      "uri": "textures/SpaceCarrier_baseColor.png"
    },
    {
      "uri": "textures/SpaceCarrier_metallicRoughness.png"
    },
    {
      "uri": "textures/SpaceCarrier_emissive.png"
    },
    {
      "uri": "textures/SpaceCarrier_normal.png"
    }
  ],
  "materials": [
    {
      "doubleSided": true,
      "emissiveFactor": [
        1.0,
        1.0,
        1.0
      ],
      "emissiveTexture": {
        "index": 2
      },
      "name": "SpaceCarrier",
      "normalTexture": {
        "index": 3
      },
      "pbrMetallicRoughness": {
        "baseColorTexture": {
          "index": 0
        },
        "metallicRoughnessTexture": {
          "index": 1
        }
      }
    }
  ],
  "meshes": [
    {
      "name": "SpaceCarrier_SpaceCarrier_0",
      "primitives": [
        {
          "attributes": {
            "NORMAL": 1,
            "POSITION": 0,
            "TANGENT": 2,
            "TEXCOORD_0": 3,
            "TEXCOORD_1": 4,
            "TEXCOORD_2": 5,
            "TEXCOORD_3": 6
          },
          "indices": 7,
          "material": 0,
          "mode": 4
        }
      ]
    }
  ],
  "nodes": [
    {
      "children": [
        1
      ],
      "matrix": [
        1.0,
        0.0,
        0.0,
        0.0,
        0.0,
        2.220446049250313e-16,
        -1.0,
        0.0,
        0.0,
        1.0,
        2.220446049250313e-16,
        0.0,
        0.0,
        0.0,
        0.0,
        1.0
      ],
      "name": "Sketchfab_model"
    },
    {
      "children": [
        2
      ],
      "matrix": [
        1.0,
        0.0,
        0.0,
        0.0,
        0.0,
        0.0,
        1.0,
        0.0,
        0.0,
        -1.0,
        0.0,
        0.0,
        0.0,
        0.0,
        0.0,
        1.0
      ],
      "name": "2eb8afddb1d44017b23df8df71678d1b.fbx"
    },
    {
      "children": [
        3
      ],
      "name": "RootNode"
    },
    {
      "children": [
        4
      ],
      "matrix": [
        161.3484344482422,
        0.0,
        0.0,
        0.0,
        -0.0,
        -2.6286996559115993e-05,
        -161.34843444824006,
        0.0,
        0.0,
        161.34843444824006,
        -2.6286996559115993e-05,
        0.0,
        -61.061519622802734,
        0.4895423650741577,
        88.24359130859375,
        1.0
      ],
      "name": "SpaceCarrier"
    },
    {
      "mesh": 0,
      "name": "SpaceCarrier_SpaceCarrier_0"
    }
  ],
  "samplers": [
    {
      "magFilter": 9729,
      "minFilter": 9987,
      "wrapS": 10497,
      "wrapT": 10497
    }
  ],
  "scene": 0,
  "scenes": [
    {
      "name": "Sketchfab_Scene",
      "nodes": [
        0
      ]
    }
  ],
  "textures": [
    {
      "sampler": 0,
      "source": 0
    },
    {
      "sampler": 0,
      "source": 1
    },
    {
      "sampler": 0,
      "source": 2
    },
    {
      "sampler": 0,
      "source": 3
    }
  ]
}
